<?xml version="1.0" encoding="utf-8"?>
<!-- Generator: Adobe Illustrator 22.1.0, SVG Export Plug-In . SVG Version: 6.00 Build 0)  -->
<svg version="1.1" id="Layer_1" xmlns="http://www.w3.org/2000/svg" xmlns:xlink="http://www.w3.org/1999/xlink" x="0px" y="0px"
	 viewBox="0 0 512 512" style="enable-background:new 0 0 512 512;" xml:space="preserve">
<g>
	<path d="M456.5,55.5c-24.7-24.7-59.8-31.6-85.3-16.7c-34.7,20.2-143.7-43.9-260,72.4c-116.4,116.4-52.1,225.2-72.4,260
		c-14.9,25.5-8,60.6,16.7,85.3c24.7,24.7,59.8,31.6,85.3,16.7c34.6-20.2,143.8,43.9,260-72.4c116.4-116.4,52.1-225.2,72.4-260
		C488.1,115.3,481.2,80.2,456.5,55.5z M436.8,119.6C402.7,178.1,476.9,265.2,371,371c-105.9,105.9-192.9,31.7-251.4,65.8
		c-19.9,11.6-56.3-23.9-44.4-44.4C109.3,333.9,35.1,246.8,141,141c105.9-105.9,192.9-31.7,251.4-65.8
		C412.4,63.6,448.7,99.2,436.8,119.6z M287.5,127.3c1.2,9.6-5.6,18.4-15.3,19.6c-48.2,6-119.3,77.2-125.4,125.4
		c-1.2,9.7-10,16.5-19.6,15.3c-9.6-1.2-16.5-10-15.3-19.6C120,203.5,203.5,120,267.9,112C277.5,110.8,286.3,117.6,287.5,127.3
		L287.5,127.3z"/>
</g>
</svg>
